<?xml version="1.0" encoding="UTF-8" standalone="no"?>
<svg
   version="1.1"
   preserveAspectRatio="none"
   x="0px"
   y="0px"
   width="48"
   height="48"
   viewBox="0 0 48 48"
   id="svg370"
   xmlns:xlink="http://www.w3.org/1999/xlink"
   xmlns="http://www.w3.org/2000/svg"
   xmlns:svg="http://www.w3.org/2000/svg">
  <defs
     id="defs231">
    <g
       id="Symbol_12_0_Layer0_0_FILL">
      <path
         fill="#ffffff"
         stroke="none"
         d="m 16,-22 v -2 h -32 v 2 h 2 v 2 h -6 v 6 h -2 v -2 h -2 v 32 h 2 v -2 h 2 v 6 h 6 v 2 h -2 v 2 h 32 v -2 h -2 v -2 h 6 v -6 h 2 v 2 h 2 v -32 h -2 v 2 h -2 v -6 h -6 v -2 h 2 m -4,4 h 6 v 6 h 4 v 24 h -4 v 6 h -6 v 4 h -24 v -4 h -6 v -6 h -4 v -24 h 4 v -6 h 6 v -4 h 24 v 4 m -2,2 v -4 h -20 v 4 h -6 v 6 h -4 v 20 h 4 v 6 h 6 v 4 h 20 v -4 h 6 v -6 h 4 v -20 h -4 v -6 z"
         id="path21" />
    </g>
  </defs>
  <g
     id="panel_022"
     transform="translate(24,24)">
    <g
       id="g240">
      <use
         xlink:href="#Symbol_12_0_Layer0_0_FILL"
         id="use240" />
    </g>
  </g>
</svg>
