<?xml version="1.0" encoding="UTF-8" standalone="no"?>
<svg
   version="1.1"
   preserveAspectRatio="none"
   x="0px"
   y="0px"
   width="48"
   height="48"
   viewBox="0 0 48 48"
   id="svg370"
   xmlns:xlink="http://www.w3.org/1999/xlink"
   xmlns="http://www.w3.org/2000/svg"
   xmlns:svg="http://www.w3.org/2000/svg">
  <defs
     id="defs231">
    <g
       id="Symbol_131_0_Layer0_0_FILL">
      <path
         fill="#ffffff"
         stroke="none"
         d="m 16,-22 v -2 h -32 v 2 h -2 v -2 h -6 v 6 h 2 v 2 h -2 v 32 h 2 v 2 h -2 v 6 h 6 v -2 h 2 v 2 h 32 v -2 h 2 v 2 h 6 v -6 h -2 v -2 h 2 v -32 h -2 v -2 h 2 v -6 h -6 v 2 h -2 m 0,2 h 2 v 2 h 2 v 2 h -4 v -4 m 4,0 v -2 h 2 v 2 h -2 m -6,-2 v 8 h 8 v 28 h -8 v 8 h -28 v -8 h -8 v -28 h 8 v -8 h 28 m 8,42 v 2 h -2 v -2 h 2 m -2,-2 h -2 v 2 h -2 v -4 h 4 v 2 m -42,-38 v -2 h 2 v 2 h -2 m 4,0 h 2 v 4 h -4 v -2 h 2 v -2 m -2,38 v -2 h 4 v 4 h -2 v -2 h -2 m 0,2 v 2 h -2 v -2 z"
         id="path220" />
    </g>
  </defs>
  <g
     id="panel_border_011"
     transform="translate(24,24)">
    <g
       id="g359">
      <use
         xlink:href="#Symbol_131_0_Layer0_0_FILL"
         id="use359" />
    </g>
  </g>
</svg>
