<?xml version="1.0" encoding="UTF-8" standalone="no"?>
<svg
   version="1.1"
   preserveAspectRatio="none"
   x="0px"
   y="0px"
   width="48"
   height="48"
   viewBox="0 0 48 48"
   id="svg370"
   xmlns:xlink="http://www.w3.org/1999/xlink"
   xmlns="http://www.w3.org/2000/svg"
   xmlns:svg="http://www.w3.org/2000/svg">
  <defs
     id="defs231">
    <g
       id="Symbol_53_0_Layer0_0_FILL">
      <path
         fill="#ffffff"
         stroke="none"
         d="m 12,-24 v 4 H 8 v 6 H 6 V -24 H -6 v 10 h -2 v -6 h -4 v -4 h -12 v 12 h 4 v 4 h 6 v 2 H -24 V 6 h 10 v 2 h -6 v 4 h -4 v 12 h 12 v -4 h 4 v -6 h 2 V 24 H 6 V 14 h 2 v 6 h 4 v 4 H 24 V 12 H 20 V 8 H 14 V 6 H 24 V -6 H 14 v -2 h 6 v -4 h 4 V -24 H 12 m 2,4 v -2 h 8 v 8 h -2 v -6 h -6 m -2,2 v 4 h -2 v -4 h 2 m 2,4 v -4 h 4 v 4 h -4 m -10,2 h 4 v 4 h 4 v 4 H 22 V 4 H 12 V 8 H 8 v 4 H 4 V 22 H -4 V 12 H -8 V 8 h -4 V 4 h -10 v -8 h 10 v -4 h 4 v -4 h 4 v -10 h 8 v 10 m 6,2 v -2 h 2 v 2 h -2 m 8,-2 v 2 h -4 v -2 h 4 m 4,26 v 8 h -8 v -2 h 6 v -6 h 2 m -8,-2 v -2 h 4 v 2 h -4 m -2,-2 v 2 h -2 v -2 h 2 m -2,8 v -4 h 2 v 4 h -2 m 8,-4 v 4 h -4 v -4 h 4 m -40,-28 v -8 h 8 v 2 h -6 v 6 h -2 m 12,-4 v 4 h -2 v -4 h 2 m -8,4 v -4 h 4 v 4 h -4 m 4,2 v 2 h -4 v -2 h 4 m 2,2 v -2 h 2 v 2 h -2 m 2,20 v 2 h -2 v -2 h 2 m -8,2 v -2 h 4 v 2 h -4 m 6,6 v -4 h 2 v 4 h -2 m -2,-4 v 4 h -4 v -4 h 4 m 0,6 v 2 h -8 v -8 h 2 v 6 z"
         id="path84" />
      <path
         fill="#ffffff"
         fill-opacity="0.498039"
         stroke="none"
         d="M 6,-10 H 2 v -10 h -4 v 10 h -4 v 4 h -4 v 4 h -10 v 4 h 10 v 4 h 4 v 4 h 4 V 20 H 2 V 10 H 6 V 6 h 4 V 2 H 20 V -2 H 10 V -6 H 6 Z"
         id="path85" />
    </g>
  </defs>
  <g
     id="panel_transparent_center_025"
     transform="translate(24,24)">
    <g
       id="g281">
      <use
         xlink:href="#Symbol_53_0_Layer0_0_FILL"
         id="use281" />
    </g>
  </g>
</svg>
