<?xml version="1.0" encoding="UTF-8" standalone="no"?>
<svg
   version="1.1"
   preserveAspectRatio="none"
   x="0px"
   y="0px"
   width="48"
   height="48"
   viewBox="0 0 48 48"
   id="svg370"
   xmlns:xlink="http://www.w3.org/1999/xlink"
   xmlns="http://www.w3.org/2000/svg"
   xmlns:svg="http://www.w3.org/2000/svg">
  <defs
     id="defs231">
    <g
       id="Symbol_120_0_Layer0_0_FILL">
      <path
         fill="#ffffff"
         stroke="none"
         d="m 16,-22 v -2 h -32 v 2 h 2 v 2 h -6 v 6 h -2 v -2 h -2 v 32 h 2 v -2 h 2 v 6 h 6 v 2 h -2 v 2 h 32 v -2 h -2 v -2 h 6 v -6 h 2 v 2 h 2 v -32 h -2 v 2 h -2 v -6 h -6 v -2 h 2 m -4,0 v 4 h 6 v 6 h 4 v 24 h -4 v 6 h -6 v 4 h -24 v -4 h -6 v -6 h -4 v -24 h 4 v -6 h 6 v -4 z"
         id="path209" />
    </g>
  </defs>
  <g
     id="panel_border_022"
     transform="translate(24,24)">
    <g
       id="g348">
      <use
         xlink:href="#Symbol_120_0_Layer0_0_FILL"
         id="use348" />
    </g>
  </g>
</svg>
