<?xml version="1.0" encoding="UTF-8" standalone="no"?>
<svg
   version="1.1"
   preserveAspectRatio="none"
   x="0px"
   y="0px"
   width="48"
   height="48"
   viewBox="0 0 48 48"
   id="svg370"
   xmlns:xlink="http://www.w3.org/1999/xlink"
   xmlns="http://www.w3.org/2000/svg"
   xmlns:svg="http://www.w3.org/2000/svg">
  <defs
     id="defs231">
    <g
       id="Symbol_109_0_Layer0_0_FILL">
      <path
         fill="#ffffff"
         fill-opacity="0.498039"
         stroke="none"
         d="m 24,24 v -48 h -48 v 48 h 48 m -8,-46 v 6 h 6 v 32 h -6 v 6 h -32 v -6 h -6 v -32 h 6 v -6 h 32 m 2,0 h 4 v 4 h -4 v -4 m 0,40 h 4 v 4 h -4 v -4 m -40,-40 h 4 v 4 h -4 v -4 m 0,40 h 4 v 4 h -4 z"
         id="path196" />
      <path
         fill="#ffffff"
         stroke="none"
         d="m 14,-14 v -6 h -28 v 6 h -6 v 28 h 6 v 6 h 28 v -6 h 6 v -28 z"
         id="path197" />
    </g>
  </defs>
  <g
     id="panel_transparent_border_001"
     transform="translate(24,24)">
    <g
       id="g337">
      <use
         xlink:href="#Symbol_109_0_Layer0_0_FILL"
         id="use337" />
    </g>
  </g>
</svg>
