<?xml version="1.0" encoding="UTF-8" standalone="no"?>
<svg
   version="1.1"
   preserveAspectRatio="none"
   x="0px"
   y="0px"
   width="48"
   height="48"
   viewBox="0 0 48 48"
   id="svg370"
   xmlns:xlink="http://www.w3.org/1999/xlink"
   xmlns="http://www.w3.org/2000/svg"
   xmlns:svg="http://www.w3.org/2000/svg">
  <defs
     id="defs231">
    <g
       id="Symbol_133_0_Layer0_0_FILL">
      <path
         fill="#ffffff"
         stroke="none"
         d="m 16,-24 v 2 h -32 v -2 h -8 v 8 h 2 v 32 h -2 v 8 h 8 v -2 h 32 v 2 h 8 v -8 h -2 v -32 h 2 v -8 h -8 m 0,4 v 4 h 4 v 32 h -4 v 4 h -32 v -4 h -4 v -32 h 4 v -4 h 32 m 2,2 v -4 h 4 v 4 h -4 m 4,36 v 4 h -4 v -4 h 4 m -44,-36 v -4 h 4 v 4 h -4 m 4,36 v 4 h -4 v -4 z"
         id="path222" />
    </g>
  </defs>
  <g
     id="panel_border_009"
     transform="translate(24,24)">
    <g
       id="g361">
      <use
         xlink:href="#Symbol_133_0_Layer0_0_FILL"
         id="use361" />
    </g>
  </g>
</svg>
