<?xml version="1.0" encoding="UTF-8" standalone="no"?>
<svg
   version="1.1"
   preserveAspectRatio="none"
   x="0px"
   y="0px"
   width="48"
   height="48"
   viewBox="0 0 48 48"
   id="svg370"
   xmlns:xlink="http://www.w3.org/1999/xlink"
   xmlns="http://www.w3.org/2000/svg"
   xmlns:svg="http://www.w3.org/2000/svg">
  <defs
     id="defs231">
    <g
       id="Symbol_96_0_Layer0_0_FILL">
      <path
         fill="#ffffff"
         fill-opacity="0.498039"
         stroke="none"
         d="m 20,-20 v -4 h -40 v 4 h -4 v 40 h 4 v 4 h 40 v -4 h 4 v -40 h -4 m -2,-2 v 4 h 4 v 36 h -4 v 4 h -36 v -4 h -4 v -36 h 4 v -4 h 36 m -2,6 v -4 h -32 v 4 h -4 v 32 h 4 v 4 h 32 v -4 h 4 v -32 h -4 m -2,2 h 4 v 28 h -4 v 4 h -28 v -4 h -4 v -28 h 4 v -4 h 28 z"
         id="path170" />
      <path
         fill="#ffffff"
         stroke="none"
         d="m 12,-12 v -4 h -24 v 4 h -4 v 24 h 4 v 4 h 24 v -4 h 4 v -24 z"
         id="path171" />
    </g>
  </defs>
  <g
     id="panel_transparent_border_014"
     transform="translate(24,24)">
    <g
       id="g324">
      <use
         xlink:href="#Symbol_96_0_Layer0_0_FILL"
         id="use324" />
    </g>
  </g>
</svg>
