<?xml version="1.0" encoding="UTF-8" standalone="no"?>
<svg
   version="1.1"
   preserveAspectRatio="none"
   x="0px"
   y="0px"
   width="48"
   height="48"
   viewBox="0 0 48 48"
   id="svg370"
   xmlns:xlink="http://www.w3.org/1999/xlink"
   xmlns="http://www.w3.org/2000/svg"
   xmlns:svg="http://www.w3.org/2000/svg">
  <defs
     id="defs231">
    <g
       id="Symbol_6_0_Layer0_0_FILL">
      <path
         fill="#ffffff"
         stroke="none"
         d="m 16,-20 v -4 h -32 v 4 h -2 v -4 h -6 v 6 h 4 v 2 h -4 v 32 h 4 v 2 h -4 v 6 h 6 v -4 h 2 v 4 h 32 v -4 h 2 v 4 h 6 v -6 h -4 v -2 h 4 v -32 h -4 v -2 h 4 v -6 h -6 v 4 h -2 m 4,0 v -2 h 2 v 2 h -2 m -4,4 v -2 h 2 v 2 h -2 m -2,-6 v 8 h 8 v 28 h -8 v 8 h -28 v -8 h -8 v -28 h 8 v -8 h 28 m 8,42 v 2 h -2 v -2 h 2 m -6,-2 v -2 h 2 v 2 h -2 m -38,-38 v -2 h 2 v 2 h -2 m 6,4 h -2 v -2 h 2 v 2 m 0,32 v 2 h -2 v -2 h 2 m -4,4 v 2 h -2 v -2 h 2 m 40,-32 h -8 v -8 h -24 v 8 h -8 v 24 h 8 v 8 h 24 v -8 h 8 z"
         id="path15" />
    </g>
  </defs>
  <g
     id="panel_028"
     transform="translate(24,24)">
    <g
       id="g234">
      <use
         xlink:href="#Symbol_6_0_Layer0_0_FILL"
         id="use234" />
    </g>
  </g>
</svg>
