<?xml version="1.0" encoding="UTF-8" standalone="no"?>
<svg
   version="1.1"
   preserveAspectRatio="none"
   x="0px"
   y="0px"
   width="48"
   height="48"
   viewBox="0 0 48 48"
   id="svg370"
   xmlns:xlink="http://www.w3.org/1999/xlink"
   xmlns="http://www.w3.org/2000/svg"
   xmlns:svg="http://www.w3.org/2000/svg">
  <defs
     id="defs231">
    <g
       id="Symbol_28_0_Layer0_0_FILL">
      <path
         fill="#ffffff"
         stroke="none"
         d="m 20,-20 v -4 h -40 v 4 h -4 v 40 h 4 v 4 h 40 v -4 h 4 v -40 h -4 m -2,6 v -4 h -4 v -4 h 4 v 4 h 4 v 4 h -4 m -6,-8 v 6 h 4 v 4 h 6 v 24 h -6 v 4 h -4 v 6 h -24 v -6 h -4 v -4 h -6 v -24 h 6 v -4 h 4 v -6 h 24 m 10,36 v 4 h -4 v 4 h -4 v -4 h 4 v -4 h 4 m -44,-28 v -4 h 4 v -4 h 4 v 4 h -4 v 4 h -4 m 4,32 h 4 v 4 h -4 v -4 h -4 v -4 h 4 v 4 m 28,-32 v -6 h -20 v 6 h -4 v 4 h -6 v 20 h 6 v 4 h 4 v 6 h 20 v -6 h 4 v -4 h 6 v -20 h -6 v -4 z"
         id="path37" />
    </g>
  </defs>
  <g
     id="panel_006"
     transform="translate(24,24)">
    <g
       id="g256">
      <use
         xlink:href="#Symbol_28_0_Layer0_0_FILL"
         id="use256" />
    </g>
  </g>
</svg>
