<?xml version="1.0" encoding="UTF-8" standalone="no"?>
<svg
   version="1.1"
   preserveAspectRatio="none"
   x="0px"
   y="0px"
   width="48"
   height="48"
   viewBox="0 0 48 48"
   id="svg370"
   xmlns:xlink="http://www.w3.org/1999/xlink"
   xmlns="http://www.w3.org/2000/svg"
   xmlns:svg="http://www.w3.org/2000/svg">
  <defs
     id="defs231">
    <g
       id="Symbol_107_0_Layer0_0_FILL">
      <path
         fill="#ffffff"
         fill-opacity="0.498039"
         stroke="none"
         d="m 14,-24 v 4 h -28 v -4 h -10 v 10 h 4 v 28 h -4 v 10 h 10 v -4 h 28 v 4 H 24 V 14 h -4 v -28 h 4 V -24 H 14 m 6,4 h -4 v -2 h 6 v 6 h -2 v -4 m -6,2 v 2 h -28 v -2 h 28 m 2,2 v -2 h 2 v 2 h -2 m 0,2 h 2 v 28 h -2 v -28 m 6,30 v 6 h -6 v -2 h 4 v -4 h 2 m -6,2 v -2 h 2 v 2 h -2 m -2,-2 v 2 h -28 v -2 h 28 m 0,-30 v 28 h -28 v -28 h 28 m -36,-2 v -6 h 6 v 2 h -4 v 4 h -2 m 4,-2 h 2 v 2 h -2 v -2 m 0,4 h 2 v 28 h -2 v -28 m 0,32 v -2 h 2 v 2 h -2 m 2,2 v 2 h -6 v -6 h 2 v 4 z"
         id="path192" />
      <path
         fill="#ffffff"
         stroke="none"
         d="M 12,12 V -12 H -12 V 12 Z"
         id="path193" />
    </g>
  </defs>
  <g
     id="panel_transparent_border_003"
     transform="translate(24,24)">
    <g
       id="g335">
      <use
         xlink:href="#Symbol_107_0_Layer0_0_FILL"
         id="use335" />
    </g>
  </g>
</svg>
