<?xml version="1.0" encoding="UTF-8" standalone="no"?>
<svg
   version="1.1"
   preserveAspectRatio="none"
   x="0px"
   y="0px"
   width="48"
   height="48"
   viewBox="0 0 48 48"
   id="svg370"
   xmlns:xlink="http://www.w3.org/1999/xlink"
   xmlns="http://www.w3.org/2000/svg"
   xmlns:svg="http://www.w3.org/2000/svg">
  <defs
     id="defs231">
    <g
       id="Symbol_11_0_Layer0_0_FILL">
      <path
         fill="#ffffff"
         stroke="none"
         d="m 20,-22 v -2 h -40 v 2 h 6 v 2 h -6 v 6 h -2 v -6 h -2 v 40 h 2 v -6 h 2 v 6 h 6 v 2 h -6 v 2 h 40 v -2 h -6 v -2 h 6 v -6 h 2 v 6 h 2 v -40 h -2 v 6 h -2 v -6 h -6 v -2 h 6 m -6,8 v -4 h 4 v 4 h -4 m -2,-8 v 10 H 22 V 12 H 12 V 22 H -12 V 12 h -10 v -24 h 10 v -10 h 24 m 6,36 v 4 h -4 v -4 h 4 m -36,-28 v -4 h 4 v 4 h -4 m 4,28 v 4 h -4 v -4 h 4 m 24,-24 v -10 h -20 v 10 h -10 v 20 h 10 V 20 H 10 V 10 h 10 v -20 z"
         id="path20" />
    </g>
  </defs>
  <g
     id="panel_023"
     transform="translate(24,24)">
    <g
       id="g239">
      <use
         xlink:href="#Symbol_11_0_Layer0_0_FILL"
         id="use239" />
    </g>
  </g>
</svg>
