<?xml version="1.0" encoding="UTF-8" standalone="no"?>
<svg
   version="1.1"
   preserveAspectRatio="none"
   x="0px"
   y="0px"
   width="48"
   height="48"
   viewBox="0 0 48 48"
   id="svg370"
   xmlns:xlink="http://www.w3.org/1999/xlink"
   xmlns="http://www.w3.org/2000/svg"
   xmlns:svg="http://www.w3.org/2000/svg">
  <defs
     id="defs231">
    <g
       id="Symbol_110_0_Layer0_0_FILL">
      <path
         fill="#ffffff"
         fill-opacity="0.498039"
         stroke="none"
         d="m -20,24 h 2 v -6 h -6 v 2 h 4 v 4 m -4,-44 v 2 h 6 v -6 h -2 v 4 h -4 m 48,40 v -2 h -6 v 6 h 2 v -4 h 4 M 14,-22 v 2 h -28 v -2 h -2 v 6 h -6 v 2 h 2 v 28 h -2 v 2 h 6 v 6 h 2 v -2 h 28 v 2 h 2 v -6 h 6 v -2 h -2 v -28 h 2 v -2 h -6 v -6 h -2 m 0,8 h 4 v 28 h -4 v 4 h -28 v -4 h -4 v -28 h 4 v -4 h 28 v 4 m 6,-6 v -4 h -2 v 6 h 6 v -2 z"
         id="path198" />
      <path
         fill="#ffffff"
         stroke="none"
         d="m 16,-12 h -4 v -4 h -24 v 4 h -4 v 24 h 4 v 4 h 24 v -4 h 4 z"
         id="path199" />
    </g>
  </defs>
  <g
     id="panel_transparent_border_000"
     transform="translate(24,24)">
    <g
       id="g338">
      <use
         xlink:href="#Symbol_110_0_Layer0_0_FILL"
         id="use338" />
    </g>
  </g>
</svg>
