<?xml version="1.0" encoding="UTF-8" standalone="no"?>
<svg
   version="1.1"
   preserveAspectRatio="none"
   x="0px"
   y="0px"
   width="96"
   height="18"
   viewBox="0 0 96 18"
   id="svg370"
   xmlns:xlink="http://www.w3.org/1999/xlink"
   xmlns="http://www.w3.org/2000/svg"
   xmlns:svg="http://www.w3.org/2000/svg">
  <defs
     id="defs231">
    <linearGradient
       id="Gradient_1"
       gradientUnits="userSpaceOnUse"
       x1="-48"
       y1="2"
       x2="0"
       y2="2"
       spreadMethod="pad">
      <stop
         offset="0%"
         stop-color="#FFFFFF"
         stop-opacity="0"
         id="stop1" />
      <stop
         offset="100%"
         stop-color="#FFFFFF"
         id="stop2" />
    </linearGradient>
    <linearGradient
       id="Gradient_2"
       gradientUnits="userSpaceOnUse"
       x1="-48"
       y1="-2"
       x2="0"
       y2="-2"
       spreadMethod="pad">
      <stop
         offset="0%"
         stop-color="#FFFFFF"
         stop-opacity="0"
         id="stop3" />
      <stop
         offset="100%"
         stop-color="#FFFFFF"
         id="stop4" />
    </linearGradient>
    <g
       id="Symbol_41_0_Layer0_0_FILL">
      <path
         fill="url(#Gradient_1)"
         stroke="none"
         d="M 0,3 V 1 h -48 v 2 z"
         id="path50" />
      <path
         fill="#ffffff"
         stroke="none"
         d="M 42,1 V 7 H 40 V 3 H 36 V 1 H 28 V 3 H 26 V 1 H 0 v 2 h 24 v 2 h 6 V 3 h 4 v 2 h 4 v 4 h 6 V 3 h 4 V 1 H 42 M 0,-3 v 2 h 26 v -2 h 2 v 2 h 8 v -2 h 4 v -4 h 2 v 6 h 6 v -2 h -4 v -6 h -6 v 4 h -4 v 2 h -4 v -2 h -6 v 2 z"
         id="path51" />
      <path
         fill="url(#Gradient_2)"
         stroke="none"
         d="m 0,-1 v -2 h -48 v 2 z"
         id="path52" />
    </g>
  </defs>
  <g
     id="divider_fade_005"
     transform="translate(48,9)">
    <g
       id="g269">
      <use
         xlink:href="#Symbol_41_0_Layer0_0_FILL"
         id="use269" />
    </g>
  </g>
</svg>
