<?xml version="1.0" encoding="UTF-8" standalone="no"?>
<svg
   version="1.1"
   preserveAspectRatio="none"
   x="0px"
   y="0px"
   width="48"
   height="48"
   viewBox="0 0 48 48"
   id="svg370"
   xmlns:xlink="http://www.w3.org/1999/xlink"
   xmlns="http://www.w3.org/2000/svg"
   xmlns:svg="http://www.w3.org/2000/svg">
  <defs
     id="defs231">
    <g
       id="Symbol_13_0_Layer0_0_FILL">
      <path
         fill="#ffffff"
         stroke="none"
         d="m 12,-20 v -4 h -24 v 4 h -8 v 8 h -4 v 24 h 4 v 8 h 8 v 4 h 24 v -4 h 8 v -8 h 4 v -24 h -4 v -8 h -8 m 0,2 h 6 v 6 h -2 v -4 h -4 v -2 m 0,4 h 2 v 2 h -2 v -2 m -2,-8 v 12 H 22 V 10 H 10 V 22 H -10 V 10 h -12 v -20 h 12 v -12 h 20 m 2,34 h 2 v 2 h -2 v -2 m 4,0 h 2 v 6 h -6 v -2 h 4 v -4 m -28,-28 h -4 v 4 h -2 v -6 h 6 v 2 m -2,2 h 2 v 2 h -2 v -2 m -4,26 h 2 v 4 h 4 v 2 h -6 v -6 m 4,0 h 2 v 2 h -2 V 12 M 8,-8 V -20 H -8 V -8 H -20 V 8 H -8 V 20 H 8 V 8 H 20 V -8 Z"
         id="path22" />
    </g>
  </defs>
  <g
     id="panel_021"
     transform="translate(24,24)">
    <g
       id="g241">
      <use
         xlink:href="#Symbol_13_0_Layer0_0_FILL"
         id="use241" />
    </g>
  </g>
</svg>
