<?xml version="1.0" encoding="UTF-8" standalone="no"?>
<svg
   version="1.1"
   preserveAspectRatio="none"
   x="0px"
   y="0px"
   width="48"
   height="48"
   viewBox="0 0 48 48"
   id="svg370"
   xmlns:xlink="http://www.w3.org/1999/xlink"
   xmlns="http://www.w3.org/2000/svg"
   xmlns:svg="http://www.w3.org/2000/svg">
  <defs
     id="defs231">
    <g
       id="Symbol_56_0_Layer0_0_FILL">
      <path
         fill="#ffffff"
         stroke="none"
         d="m 16,-22 v -2 h -32 v 2 h 2 v 2 h -6 v 6 h -2 v -2 h -2 v 32 h 2 v -2 h 2 v 6 h 6 v 2 h -2 v 2 h 32 v -2 h -2 v -2 h 6 v -6 h 2 v 2 h 2 v -32 h -2 v 2 h -2 v -6 h -6 v -2 h 2 m -4,4 h 6 v 6 h 4 v 24 h -4 v 6 h -6 v 4 h -24 v -4 h -6 v -6 h -4 v -24 h 4 v -6 h 6 v -4 h 24 z"
         id="path90" />
      <path
         fill="#ffffff"
         fill-opacity="0.498039"
         stroke="none"
         d="m 10,-16 v -4 h -20 v 4 h -6 v 6 h -4 v 20 h 4 v 6 h 6 v 4 h 20 v -4 h 6 v -6 h 4 v -20 h -4 v -6 z"
         id="path91" />
    </g>
  </defs>
  <g
     id="panel_transparent_center_022"
     transform="translate(24,24)">
    <g
       id="g284">
      <use
         xlink:href="#Symbol_56_0_Layer0_0_FILL"
         id="use284" />
    </g>
  </g>
</svg>
