<?xml version="1.0" encoding="UTF-8" standalone="no"?>
<svg
   version="1.1"
   preserveAspectRatio="none"
   x="0px"
   y="0px"
   width="48"
   height="48"
   viewBox="0 0 48 48"
   id="svg370"
   xmlns:xlink="http://www.w3.org/1999/xlink"
   xmlns="http://www.w3.org/2000/svg"
   xmlns:svg="http://www.w3.org/2000/svg">
  <defs
     id="defs231">
    <g
       id="Symbol_135_0_Layer0_0_FILL">
      <path
         fill="#ffffff"
         stroke="none"
         d="m 24,24 v -48 h -48 v 48 h 48 m -8,-46 v 2 h -2 v -2 h 2 m 0,4 v 2 h 2 v 4 h 4 v 24 h -4 v 4 h -2 v 2 h -4 v 4 h -24 v -4 h -4 v -2 h -2 v -4 h -4 v -24 h 4 v -4 h 2 v -2 h 4 v -4 h 24 v 4 h 4 m 4,4 v -2 h 2 v 2 h -2 m -2,-4 v -4 h 4 v 4 h -4 m 4,36 v 4 h -4 v -4 h 4 m 0,-4 v 2 h -2 v -2 h 2 m -8,8 v -2 h 2 v 2 h -2 m -36,-36 v -2 h 2 v 2 h -2 m 0,-4 v -4 h 4 v 4 h -4 m 8,-4 v 2 h -2 v -2 h 2 m -6,36 v 2 h -2 v -2 h 2 m 4,8 v -2 h 2 v 2 h -2 m -2,-4 v 4 h -4 v -4 z"
         id="path224" />
    </g>
  </defs>
  <g
     id="panel_border_007"
     transform="translate(24,24)">
    <g
       id="g363">
      <use
         xlink:href="#Symbol_135_0_Layer0_0_FILL"
         id="use363" />
    </g>
  </g>
</svg>
