<?xml version="1.0" encoding="UTF-8" standalone="no"?>
<svg
   version="1.1"
   preserveAspectRatio="none"
   x="0px"
   y="0px"
   width="48"
   height="48"
   viewBox="0 0 48 48"
   id="svg370"
   xmlns:xlink="http://www.w3.org/1999/xlink"
   xmlns="http://www.w3.org/2000/svg"
   xmlns:svg="http://www.w3.org/2000/svg">
  <defs
     id="defs231">
    <g
       id="Symbol_129_0_Layer0_0_FILL">
      <path
         fill="#ffffff"
         stroke="none"
         d="m -20,24 v -4 h -4 v 4 h 4 m -4,-48 v 4 h 4 v -4 h -4 m 48,48 v -4 h -4 v 4 h 4 m -6,-42 v -6 h -36 v 6 h -6 v 36 h 6 v 6 h 36 v -6 h 6 v -36 h -6 m 0,4 v -2 h 4 v 32 h -4 v -2 h -4 v 4 h 2 v 4 h -32 v -4 h 2 v -4 h -4 v 2 h -4 v -32 h 4 v 2 h 4 v -4 h -2 v -4 h 32 v 4 h -2 v 4 h 4 m 2,-10 v 4 h 4 v -4 z"
         id="path218" />
    </g>
  </defs>
  <g
     id="panel_border_013"
     transform="translate(24,24)">
    <g
       id="g357">
      <use
         xlink:href="#Symbol_129_0_Layer0_0_FILL"
         id="use357" />
    </g>
  </g>
</svg>
