<?xml version="1.0" encoding="UTF-8" standalone="no"?>
<svg
   version="1.1"
   preserveAspectRatio="none"
   x="0px"
   y="0px"
   width="48"
   height="48"
   viewBox="0 0 48 48"
   id="svg370"
   xmlns:xlink="http://www.w3.org/1999/xlink"
   xmlns="http://www.w3.org/2000/svg"
   xmlns:svg="http://www.w3.org/2000/svg">
  <defs
     id="defs231">
    <g
       id="Symbol_91_0_Layer0_0_FILL">
      <path
         fill="#ffffff"
         fill-opacity="0.498039"
         stroke="none"
         d="m 18,-22 v -2 h -36 v 2 h 2 v 2 h -4 v 4 h -2 v -2 h -2 v 36 h 2 v -2 h 2 v 4 h 4 v 2 h -2 v 2 h 36 v -2 h -2 v -2 h 4 v -4 h 2 v 2 h 2 v -36 h -2 v 2 h -2 v -4 h -4 v -2 h 2 m -4,2 h -2 v 8 h 8 v -2 h 2 v 28 h -2 v -2 h -8 v 8 h 2 v 2 h -28 v -2 h 2 v -8 h -8 v 2 h -2 v -28 h 2 v 2 h 8 v -8 h -2 v -2 h 28 v 2 m 0,6 v -4 h 4 v 4 h -4 m 4,28 v 4 h -4 v -4 h 4 m -36,-28 v -4 h 4 v 4 h -4 m 4,28 v 4 h -4 v -4 z"
         id="path160" />
      <path
         fill="#ffffff"
         stroke="none"
         d="m 10,-10 v -10 h -20 v 10 h -10 v 20 h 10 V 20 H 10 V 10 h 10 v -20 z"
         id="path161" />
    </g>
  </defs>
  <g
     id="panel_transparent_border_019"
     transform="translate(24,24)">
    <g
       id="g319">
      <use
         xlink:href="#Symbol_91_0_Layer0_0_FILL"
         id="use319" />
    </g>
  </g>
</svg>
