<?xml version="1.0" encoding="UTF-8" standalone="no"?>
<svg
   version="1.1"
   preserveAspectRatio="none"
   x="0px"
   y="0px"
   width="48"
   height="48"
   viewBox="0 0 48 48"
   id="svg370"
   xmlns:xlink="http://www.w3.org/1999/xlink"
   xmlns="http://www.w3.org/2000/svg"
   xmlns:svg="http://www.w3.org/2000/svg">
  <defs
     id="defs231">
    <g
       id="Symbol_10_0_Layer0_0_FILL">
      <path
         fill="#ffffff"
         stroke="none"
         d="m 20,-20 v -4 H 10 v 8 h -20 v -8 h -10 v 4 h -4 v 10 h 8 v 20 h -8 v 10 h 4 v 4 h 10 v -8 h 20 v 8 h 10 v -4 h 4 V 10 h -8 v -20 h 8 v -10 h -4 m -2,-2 v 2 h -4 v 4 h -2 v -6 h 6 m -6,8 h 2 v 2 h -2 v -2 m 4,0 h 4 v -4 h 2 v 6 h -6 v -2 m 0,-2 v -2 h 2 v 2 h -2 m -4,6 h 2 v 20 h -2 v -20 m -2,-4 v 2 h -20 v -2 h 20 m 12,26 v 6 h -2 v -4 h -4 v -2 h 6 m -10,0 h 2 v 2 h -2 v -2 m 4,6 v -2 h 2 v 2 h -2 m -4,-2 h 2 v 4 h 4 v 2 h -6 v -6 m -2,-4 v 2 h -20 v -2 h 20 m 0,-22 v 20 h -20 v -20 h 20 m -32,-2 v -6 h 2 v 4 h 4 v 2 h -6 m 4,-8 v -2 h 6 v 6 h -2 v -4 h -4 m 0,4 v -2 h 2 v 2 h -2 m 4,2 h 2 v 2 h -2 v -2 m 0,4 h 2 v 20 h -2 v -20 m 0,22 h 2 v 2 h -2 v -2 m 0,4 h 2 v 6 h -6 v -2 h 4 v -4 m -4,2 v -2 h 2 v 2 h -2 m -2,-4 v 4 h -2 v -6 h 6 v 2 h -4 M 8,8 V -8 H -8 V 8 Z"
         id="path19" />
    </g>
  </defs>
  <g
     id="panel_024"
     transform="translate(24,24)">
    <g
       id="g238">
      <use
         xlink:href="#Symbol_10_0_Layer0_0_FILL"
         id="use238" />
    </g>
  </g>
</svg>
