<?xml version="1.0" encoding="UTF-8" standalone="no"?>
<svg
   version="1.1"
   preserveAspectRatio="none"
   x="0px"
   y="0px"
   width="48"
   height="48"
   viewBox="0 0 48 48"
   id="svg370"
   xmlns:xlink="http://www.w3.org/1999/xlink"
   xmlns="http://www.w3.org/2000/svg"
   xmlns:svg="http://www.w3.org/2000/svg">
  <defs
     id="defs231">
    <g
       id="Symbol_8_0_Layer0_0_FILL">
      <path
         fill="#ffffff"
         stroke="none"
         d="m 12,-24 v 4 h -2 v -4 h -20 v 4 h -2 v -4 h -12 v 12 h 4 v 2 h -4 v 20 h 4 v 2 h -4 v 12 h 12 v -4 h 2 v 4 h 20 v -4 h 2 v 4 H 24 V 12 h -4 v -2 h 4 v -20 h -4 v -2 h 4 V -24 H 12 m 2,10 v -4 h 4 v 4 h -4 m 6,0 v -6 h -6 v -2 h 8 v 8 h -2 m -8,2 h 6 v 2 h -8 v -8 h 2 v 6 M 8,-22 V -8 H 22 V 8 H 8 V 22 H -8 V 8 H -22 V -8 H -8 V -22 H 8 m 14,36 v 8 h -8 v -2 h 6 v -6 h 2 m -4,-4 v 2 h -6 v 6 h -2 v -8 h 8 m 0,4 v 4 h -4 v -4 h 4 m -40,-28 v -8 h 8 v 2 h -6 v 6 h -2 m 4,-4 h 4 v 4 h -4 v -4 m 0,6 h 6 v -6 h 2 v 8 h -8 v -2 m 6,24 h -6 v -2 h 8 v 8 h -2 v -6 m -8,2 v 6 h 6 v 2 h -8 v -8 h 2 m 2,0 h 4 v 4 h -4 V 14 M 6,-6 V -20 H -6 V -6 H -20 V 6 H -6 V 20 H 6 V 6 H 20 V -6 Z"
         id="path17" />
    </g>
  </defs>
  <g
     id="panel_026"
     transform="translate(24,24)">
    <g
       id="g236">
      <use
         xlink:href="#Symbol_8_0_Layer0_0_FILL"
         id="use236" />
    </g>
  </g>
</svg>
