<?xml version="1.0" encoding="UTF-8" standalone="no"?>
<svg
   version="1.1"
   preserveAspectRatio="none"
   x="0px"
   y="0px"
   width="48"
   height="48"
   viewBox="0 0 48 48"
   id="svg370"
   xmlns:xlink="http://www.w3.org/1999/xlink"
   xmlns="http://www.w3.org/2000/svg"
   xmlns:svg="http://www.w3.org/2000/svg">
  <defs
     id="defs231">
    <g
       id="Symbol_112_0_Layer0_0_FILL">
      <path
         fill="#ffffff"
         stroke="none"
         d="m 16,-20 v -4 h -32 v 4 h -2 v -4 h -6 v 6 h 4 v 2 h -4 v 32 h 4 v 2 h -4 v 6 h 6 v -4 h 2 v 4 h 32 v -4 h 2 v 4 h 6 v -6 h -4 v -2 h 4 v -32 h -4 v -2 h 4 v -6 h -6 v 4 h -2 m 2,2 v 4 h 4 v 28 h -4 v 4 h -4 v 4 h -28 v -4 h -4 v -4 h -4 v -28 h 4 v -4 h 4 v -4 h 28 v 4 h 4 m 2,-2 v -2 h 2 v 2 h -2 m 2,40 v 2 h -2 v -2 h 2 m -44,-40 v -2 h 2 v 2 h -2 m 2,40 v 2 h -2 v -2 z"
         id="path201" />
    </g>
  </defs>
  <g
     id="panel_border_030"
     transform="translate(24,24)">
    <g
       id="g340">
      <use
         xlink:href="#Symbol_112_0_Layer0_0_FILL"
         id="use340" />
    </g>
  </g>
</svg>
