<?xml version="1.0" encoding="UTF-8" standalone="no"?>
<svg
   version="1.1"
   preserveAspectRatio="none"
   x="0px"
   y="0px"
   width="48"
   height="48"
   viewBox="0 0 48 48"
   id="svg370"
   xmlns:xlink="http://www.w3.org/1999/xlink"
   xmlns="http://www.w3.org/2000/svg"
   xmlns:svg="http://www.w3.org/2000/svg">
  <defs
     id="defs231">
    <g
       id="Symbol_111_0_Layer0_0_FILL">
      <path
         fill="#ffffff"
         stroke="none"
         d="m 18,-14 v -2 h 6 v -8 h -8 v 6 h -2 v -6 h -28 v 6 h -2 v -6 h -8 v 8 h 6 v 2 h -6 v 28 h 6 v 2 h -6 v 8 h 8 v -6 h 2 v 6 h 28 v -6 h 2 v 6 h 8 v -8 h -6 v -2 h 6 v -28 h -6 m 0,-4 v -4 h 4 v 4 h -4 m -6,-4 v 6 h 4 v 4 h 6 v 24 h -6 v 4 h -4 v 6 h -24 v -6 h -4 v -4 h -6 v -24 h 6 v -4 h 4 v -6 h 24 m 10,40 v 4 h -4 v -4 h 4 m -44,-36 v -4 h 4 v 4 h -4 m 4,36 v 4 h -4 v -4 h 4 m 6,-6 h -2 v 2 h 2 v -2 m 0,-26 h -2 v 2 h 2 v -2 m 26,26 h -2 v 2 h 2 v -2 m 0,-26 h -2 v 2 h 2 z"
         id="path200" />
    </g>
  </defs>
  <g
     id="panel_border_031"
     transform="translate(24,24)">
    <g
       id="g339">
      <use
         xlink:href="#Symbol_111_0_Layer0_0_FILL"
         id="use339" />
    </g>
  </g>
</svg>
