<?xml version="1.0" encoding="UTF-8" standalone="no"?>
<svg
   version="1.1"
   preserveAspectRatio="none"
   x="0px"
   y="0px"
   width="48"
   height="48"
   viewBox="0 0 48 48"
   id="svg370"
   xmlns:xlink="http://www.w3.org/1999/xlink"
   xmlns="http://www.w3.org/2000/svg"
   xmlns:svg="http://www.w3.org/2000/svg">
  <defs
     id="defs231">
    <g
       id="Symbol_73_0_Layer0_0_FILL">
      <path
         fill="#ffffff"
         stroke="none"
         d="m 24,24 v -48 h -48 v 48 h 48 m -4,-38 v -6 h -6 v -2 h 8 v 8 h -2 m -8,-8 v 4 h 6 v 6 h 4 v 24 h -4 v 6 h -6 v 4 h -24 v -4 h -6 v -6 h -4 v -24 h 4 v -6 h 6 v -4 h 24 m 10,36 v 8 h -8 v -2 h 6 v -6 h 2 m -44,-28 v -8 h 8 v 2 h -6 v 6 h -2 m 2,34 h 6 v 2 h -8 v -8 h 2 z"
         id="path124" />
      <path
         fill="#ffffff"
         fill-opacity="0.498039"
         stroke="none"
         d="m 10,-16 v -4 h -20 v 4 h -6 v 6 h -4 v 20 h 4 v 6 h 6 v 4 h 20 v -4 h 6 v -6 h 4 v -20 h -4 v -6 z"
         id="path125" />
    </g>
  </defs>
  <g
     id="panel_transparent_center_005"
     transform="translate(24,24)">
    <g
       id="g301">
      <use
         xlink:href="#Symbol_73_0_Layer0_0_FILL"
         id="use301" />
    </g>
  </g>
</svg>
