<?xml version="1.0" encoding="UTF-8" standalone="no"?>
<svg
   version="1.1"
   preserveAspectRatio="none"
   x="0px"
   y="0px"
   width="48"
   height="48"
   viewBox="0 0 48 48"
   id="svg370"
   xmlns:xlink="http://www.w3.org/1999/xlink"
   xmlns="http://www.w3.org/2000/svg"
   xmlns:svg="http://www.w3.org/2000/svg">
  <defs
     id="defs231">
    <g
       id="Symbol_116_0_Layer0_0_FILL">
      <path
         fill="#ffffff"
         stroke="none"
         d="m 12,-24 v 4 h -2 v -4 h -20 v 4 h -2 v -4 h -12 v 12 h 4 v 2 h -4 v 20 h 4 v 2 h -4 v 12 h 12 v -4 h 2 v 4 h 20 v -4 h 2 v 4 H 24 V 12 h -4 v -2 h 4 v -20 h -4 v -2 h 4 V -24 H 12 m 2,4 v -2 h 8 v 8 h -2 v -6 h -6 m 0,2 h 4 v 4 h -4 v -4 m -2,6 h 6 v 2 h -8 v -8 h 2 v 6 M 8,-22 V -8 H 22 V 8 H 8 V 22 H -8 V 8 H -22 V -8 H -8 V -22 H 8 m 14,36 v 8 h -8 v -2 h 6 v -6 h 2 m -4,-4 v 2 h -6 v 6 h -2 v -8 h 8 m 0,4 v 4 h -4 v -4 h 4 m -40,-28 v -8 h 8 v 2 h -6 v 6 h -2 m 8,-4 v 4 h -4 v -4 h 4 m -4,6 h 6 v -6 h 2 v 8 h -8 v -2 m 6,24 h -6 v -2 h 8 v 8 h -2 v -6 m -8,2 v 6 h 6 v 2 h -8 v -8 h 2 m 2,0 h 4 v 4 h -4 z"
         id="path205" />
    </g>
  </defs>
  <g
     id="panel_border_026"
     transform="translate(24,24)">
    <g
       id="g344">
      <use
         xlink:href="#Symbol_116_0_Layer0_0_FILL"
         id="use344" />
    </g>
  </g>
</svg>
