<?xml version="1.0" encoding="UTF-8" standalone="no"?>
<svg
   version="1.1"
   preserveAspectRatio="none"
   x="0px"
   y="0px"
   width="48"
   height="48"
   viewBox="0 0 48 48"
   id="svg370"
   xmlns:xlink="http://www.w3.org/1999/xlink"
   xmlns="http://www.w3.org/2000/svg"
   xmlns:svg="http://www.w3.org/2000/svg">
  <defs
     id="defs231">
    <g
       id="Symbol_71_0_Layer0_0_FILL">
      <path
         fill="#ffffff"
         stroke="none"
         d="m 24,24 v -48 h -48 v 48 h 48 m -8,-46 v 2 h -2 v -2 h 2 m 0,6 h 2 v 4 h 4 v 24 h -4 v 4 h -2 v 2 h -4 v 4 h -24 v -4 h -4 v -2 h -2 v -4 h -4 v -24 h 4 v -4 h 2 v -2 h 4 v -4 h 24 v 4 h 4 v 2 m 4,2 v -2 h 2 v 2 h -2 m -2,-4 v -4 h 4 v 4 h -4 m 4,36 v 4 h -4 v -4 h 4 m 0,-4 v 2 h -2 v -2 h 2 m -8,8 v -2 h 2 v 2 h -2 m -36,-40 v -4 h 4 v 4 h -4 m 0,4 v -2 h 2 v 2 h -2 m 8,-8 v 2 h -2 v -2 h 2 m -6,36 v 2 h -2 v -2 h 2 m 4,8 v -2 h 2 v 2 h -2 m -2,-4 v 4 h -4 v -4 z"
         id="path120" />
      <path
         fill="#ffffff"
         fill-opacity="0.498039"
         stroke="none"
         d="m 14,-14 v -2 h -4 v -4 h -20 v 4 h -4 v 2 h -2 v 4 h -4 v 20 h 4 v 4 h 2 v 2 h 4 v 4 h 20 v -4 h 4 v -2 h 2 v -4 h 4 v -20 h -4 v -4 z"
         id="path121" />
    </g>
  </defs>
  <g
     id="panel_transparent_center_007"
     transform="translate(24,24)">
    <g
       id="g299">
      <use
         xlink:href="#Symbol_71_0_Layer0_0_FILL"
         id="use299" />
    </g>
  </g>
</svg>
